<svg data-v-73fdaaa2="" version="1.0" xmlns="http://www.w3.org/2000/svg" xmlns:xlink="http://www.w3.org/1999/xlink" width="100%" height="100%" viewBox="0 0 340.000000 250.000000" preserveAspectRatio="xMidYMid meet" color-interpolation-filters="sRGB" class="el-tooltip" style="margin: auto;"><g data-v-73fdaaa2="" fill="#ffffff" class="icon-svg-group iconsvg" transform="translate(112.62000274658203,78.15999984741211)"><g class="iconsvg-imagesvg" transform="translate(27.37999725341797,0)"><rect fill="#ffffff" fill-opacity="0" stroke-width="2" x="0" y="0" width="60" height="60"></rect> <svg x="0" y="0" width="60" height="60" class="imagesvg-svg"><svg xmlns="http://www.w3.org/2000/svg" viewBox="0 0 42.47 48.19"><title>1</title><g data-name="图层 2"><g data-name="Layer 1" fill="#ffffff"><path d="M36.06 27.59l-3.57-13.35-4 13.35h7.57zM25.34 38.31l-3.15 9.88h20.28l-3.26-9.88H25.34zM0 0v48.19h8.84L25.04 0H0z"></path></g></g></svg></svg> <!----></g> <g transform="translate(0,67.00000381469727)"><g class="tp-name iconsvg-namesvg"><g><path transform="translate(-0.12,26.68)" d="M6.76 0L0.12 0L11.16-26.68L17.68-26.68L28.72 0L22.08 0L19.48-6.16L9.36-6.16L6.76 0ZM18.24-10.92L14.44-20.24L10.64-10.92L18.24-10.92ZM31.28-11.68L31.28-26.68L36.92-26.68L36.92-11.68L36.92-11.68Q37.04-8.84 37.16-7.92L37.16-7.92L37.16-7.92Q37.44-6.08 38.92-5.42L38.92-5.42L38.92-5.42Q40.40-4.76 44.12-4.76L44.12-4.76L49.56-4.76L49.56 0L43.52 0L43.52 0Q39.24 0 37.32-0.48L37.32-0.48L37.32-0.48Q32.92-1.76 31.72-6.08L31.72-6.08L31.72-6.08Q31.28-7.76 31.28-11.68L31.28-11.68ZM58.56 0L52.88 0L52.88-26.68L58.56-26.68L58.56 0ZM73.76-11.08L73.76-15.84L86.84-15.84L86.84 0L74.92 0L74.92 0Q71.84 0 70.02-0.46L70.02-0.46L70.02-0.46Q68.20-0.92 66.72-2.08L66.72-2.08L66.72-2.08Q62.52-5.32 62.52-13.24L62.52-13.24L62.52-13.24Q62.52-18.40 64.52-21.84L64.52-21.84L64.52-21.84Q66-24.36 68.56-25.52L68.56-25.52L68.56-25.52Q71.12-26.68 75.20-26.68L75.20-26.68L86.84-26.68L86.84-21.92L75.84-21.92L75.84-21.92Q72.28-21.92 70.68-20.36L70.68-20.36L70.68-20.36Q68.76-18.52 68.76-13.76L68.76-13.76L68.76-13.76Q68.76-11.32 69.26-9.36L69.26-9.36L69.26-9.36Q69.76-7.40 70.64-6.44L70.64-6.44L70.64-6.44Q71.40-5.56 72.74-5.16L72.74-5.16L72.74-5.16Q74.08-4.76 76.04-4.76L76.04-4.76L81.20-4.76L81.20-11.08L73.76-11.08ZM107.92 0L97.04-19.56L97.04 0L91.60 0L91.60-26.68L98.88-26.68L109.48-6.80L109.48-26.68L114.88-26.68L114.88 0L107.92 0Z"></path></g> <!----> <!----> <!----> <!----> <!----> <!----> <!----></g> <!----></g></g></svg>